<svg width="124" height="26" viewBox="0 0 124 26" fill="none" xmlns="http://www.w3.org/2000/svg">
<path d="M61.5322 11.9383C61.5322 10.4881 61.8171 9.20187 62.3868 8.07969C62.9738 6.95751 63.768 6.09429 64.7693 5.49004C65.7706 4.88579 66.8842 4.58367 68.1099 4.58367C69.0422 4.58367 69.9313 4.79084 70.7773 5.20518C71.6232 5.60226 72.2965 6.13745 72.7972 6.81076V0H76.4745V19.1634H72.7972V17.0398C72.3483 17.7477 71.7182 18.3174 70.9067 18.749C70.0953 19.1806 69.1544 19.3964 68.084 19.3964C66.8755 19.3964 65.7706 19.0857 64.7693 18.4642C63.768 17.8426 62.9738 16.9708 62.3868 15.8486C61.8171 14.7092 61.5322 13.4057 61.5322 11.9383ZM72.8231 11.99C72.8231 11.1096 72.6504 10.3586 72.3051 9.73706C71.9599 9.09828 71.4937 8.61488 70.9067 8.28686C70.3197 7.94157 69.6896 7.76893 69.0163 7.76893C68.343 7.76893 67.7215 7.93294 67.1518 8.26096C66.582 8.58898 66.1159 9.07238 65.7533 9.71116C65.4081 10.3327 65.2354 11.075 65.2354 11.9383C65.2354 12.8015 65.4081 13.5611 65.7533 14.2171C66.1159 14.8559 66.582 15.3479 67.1518 15.6932C67.7387 16.0385 68.3603 16.2112 69.0163 16.2112C69.6896 16.2112 70.3197 16.0472 70.9067 15.7191C71.4937 15.3738 71.9599 14.8904 72.3051 14.2689C72.6504 13.6302 72.8231 12.8705 72.8231 11.99Z" fill="#212121"/>
<path d="M93.3521 11.6793C93.3521 12.1972 93.3175 12.6634 93.2485 13.0777H82.7604C82.8467 14.1136 83.2093 14.925 83.8481 15.512C84.4869 16.0989 85.2724 16.3924 86.2046 16.3924C87.5513 16.3924 88.5094 15.8141 89.0791 14.6574H92.9895C92.5752 16.0385 91.781 17.178 90.607 18.0757C89.4331 18.9562 87.9915 19.3964 86.2823 19.3964C84.9012 19.3964 83.6582 19.0943 82.5533 18.49C81.4656 17.8685 80.611 16.9967 79.9895 15.8745C79.3853 14.7523 79.0831 13.4575 79.0831 11.99C79.0831 10.5053 79.3853 9.20187 79.9895 8.07969C80.5938 6.95751 81.4397 6.09429 82.5274 5.49004C83.615 4.88579 84.8667 4.58367 86.2823 4.58367C87.6462 4.58367 88.8633 4.87716 89.9337 5.46415C91.0214 6.05113 91.8587 6.88845 92.4457 7.9761C93.0499 9.04648 93.3521 10.2809 93.3521 11.6793ZM89.5971 10.6434C89.5798 9.71116 89.2432 8.9688 88.5871 8.41634C87.9311 7.84662 87.1283 7.56176 86.1787 7.56176C85.281 7.56176 84.5214 7.83799 83.8999 8.39044C83.2956 8.92564 82.9244 9.67663 82.7863 10.6434H89.5971Z" fill="#212121"/>
<path d="M101.488 19.3964C100.314 19.3964 99.2613 19.1893 98.329 18.7749C97.3968 18.3433 96.6544 17.7649 96.1019 17.0398C95.5667 16.3147 95.2732 15.512 95.2215 14.6315H98.8729C98.9419 15.1839 99.2095 15.6414 99.6756 16.004C100.159 16.3665 100.755 16.5478 101.463 16.5478C102.153 16.5478 102.688 16.4097 103.068 16.1335C103.465 15.8572 103.664 15.5033 103.664 15.0717C103.664 14.6056 103.422 14.2603 102.939 14.0359C102.472 13.7942 101.721 13.5352 100.686 13.259C99.6152 13 98.7347 12.7324 98.0442 12.4562C97.3709 12.18 96.7839 11.757 96.2832 11.1873C95.7998 10.6175 95.5581 9.84927 95.5581 8.88247C95.5581 8.08832 95.7825 7.36322 96.2314 6.70718C96.6976 6.05113 97.3536 5.5332 98.1995 5.15339C99.0628 4.77358 100.073 4.58367 101.229 4.58367C102.939 4.58367 104.302 5.01528 105.321 5.87849C106.34 6.72444 106.901 7.87251 107.004 9.32271H103.534C103.482 8.75299 103.241 8.30412 102.809 7.9761C102.395 7.63081 101.834 7.45817 101.126 7.45817C100.47 7.45817 99.9605 7.57902 99.598 7.82072C99.2527 8.06242 99.08 8.39907 99.08 8.83068C99.08 9.31408 99.3217 9.68526 99.8051 9.94423C100.289 10.1859 101.04 10.4363 102.058 10.6952C103.094 10.9542 103.949 11.2218 104.622 11.498C105.295 11.7742 105.874 12.2058 106.357 12.7928C106.858 13.3626 107.117 14.1222 107.134 15.0717C107.134 15.9004 106.901 16.6428 106.435 17.2988C105.986 17.9549 105.33 18.4728 104.466 18.8526C103.621 19.2151 102.628 19.3964 101.488 19.3964Z" fill="#212121"/>
<path d="M118.604 19.1634L113.735 13.0518V19.1634H110.11V0H113.735V10.9024L118.552 4.81674H123.265L116.947 12.0159L123.317 19.1634H118.604Z" fill="#212121"/>
<path d="M3.6255 16.2889H9.58168V19.1634H0V1.08771H3.6255V16.2889Z" fill="url(#paint0_linear_99_504)"/>
<path d="M18.2566 19.3965C16.8754 19.3965 15.6324 19.0944 14.5275 18.4901C13.4226 17.8686 12.5507 16.9967 11.912 15.8746C11.2904 14.7524 10.9797 13.4576 10.9797 11.9901C10.9797 10.5226 11.2991 9.22782 11.9378 8.10564C12.5939 6.98346 13.483 6.12025 14.6052 5.516C15.7274 4.89448 16.979 4.58372 18.3602 4.58372C19.7413 4.58372 20.993 4.89448 22.1151 5.516C23.2373 6.12025 24.1178 6.98346 24.7566 8.10564C25.4126 9.22782 25.7406 10.5226 25.7406 11.9901C25.7406 13.4576 25.404 14.7524 24.7307 15.8746C24.0746 16.9967 23.1769 17.8686 22.0375 18.4901C20.9153 19.0944 19.655 19.3965 18.2566 19.3965ZM18.2566 16.2371C18.9126 16.2371 19.5255 16.0817 20.0952 15.771C20.6822 15.443 21.1483 14.9596 21.4936 14.3208C21.8389 13.682 22.0116 12.9051 22.0116 11.9901C22.0116 10.6262 21.649 9.58174 20.9239 8.85664C20.2161 8.11427 19.3442 7.74309 18.3084 7.74309C17.2725 7.74309 16.4007 8.11427 15.6928 8.85664C15.0023 9.58174 14.657 10.6262 14.657 11.9901C14.657 13.354 14.9936 14.4071 15.6669 15.1495C16.3575 15.8746 17.2207 16.2371 18.2566 16.2371Z" fill="url(#paint1_linear_99_504)"/>
<path d="M34.7706 19.3965C33.3895 19.3965 32.1464 19.0944 31.0415 18.4901C29.9366 17.8686 29.0648 16.9967 28.426 15.8746C27.8045 14.7524 27.4937 13.4576 27.4937 11.9901C27.4937 10.5226 27.8131 9.22782 28.4519 8.10564C29.1079 6.98346 29.997 6.12025 31.1192 5.516C32.2414 4.89448 33.4931 4.58372 34.8742 4.58372C36.2553 4.58372 37.507 4.89448 38.6292 5.516C39.7514 6.12025 40.6318 6.98346 41.2706 8.10564C41.9267 9.22782 42.2547 10.5226 42.2547 11.9901C42.2547 13.4576 41.918 14.7524 41.2447 15.8746C40.5887 16.9967 39.6909 17.8686 38.5515 18.4901C37.4293 19.0944 36.169 19.3965 34.7706 19.3965ZM34.7706 16.2371C35.4267 16.2371 36.0395 16.0817 36.6093 15.771C37.1962 15.443 37.6624 14.9596 38.0077 14.3208C38.353 13.682 38.5256 12.9051 38.5256 11.9901C38.5256 10.6262 38.163 9.58174 37.4379 8.85664C36.7301 8.11427 35.8583 7.74309 34.8224 7.74309C33.7865 7.74309 32.9147 8.11427 32.2069 8.85664C31.5163 9.58174 31.171 10.6262 31.171 11.9901C31.171 13.354 31.5077 14.4071 32.181 15.1495C32.8715 15.8746 33.7348 16.2371 34.7706 16.2371Z" fill="url(#paint2_linear_99_504)"/>
<path d="M48.5396 6.88851C49.0058 6.23246 49.6445 5.68864 50.456 5.25703C51.2846 4.80816 52.2256 4.58372 53.2787 4.58372C54.5044 4.58372 55.6093 4.88585 56.5934 5.4901C57.5947 6.09435 58.3803 6.95757 58.95 8.07974C59.537 9.18466 59.8305 10.4708 59.8305 11.9383C59.8305 13.4058 59.537 14.7092 58.95 15.8487C58.3803 16.9709 57.5947 17.8427 56.5934 18.4642C55.6093 19.0857 54.5044 19.3965 53.2787 19.3965C52.2256 19.3965 51.2933 19.1807 50.4819 18.7491C49.6877 18.3175 49.0403 17.7736 48.5396 17.1176V26.0001H44.9141V4.81679H48.5396V6.88851ZM56.1273 11.9383C56.1273 11.0751 55.946 10.3327 55.5835 9.71122C55.2382 9.07244 54.772 8.58904 54.185 8.26102C53.6153 7.933 52.9938 7.76899 52.3205 7.76899C51.6645 7.76899 51.0429 7.94163 50.456 8.28692C49.8862 8.61494 49.4201 9.09834 49.0575 9.73711C48.7123 10.3759 48.5396 11.1269 48.5396 11.9901C48.5396 12.8533 48.7123 13.6043 49.0575 14.2431C49.4201 14.8819 49.8862 15.3739 50.456 15.7192C51.0429 16.0472 51.6645 16.2112 52.3205 16.2112C52.9938 16.2112 53.6153 16.0386 54.185 15.6933C54.772 15.348 55.2382 14.856 55.5835 14.2172C55.946 13.5784 56.1273 12.8188 56.1273 11.9383Z" fill="url(#paint3_linear_99_504)"/>
<defs>
<linearGradient id="paint0_linear_99_504" x1="100.544" y1="57.9511" x2="-32.7464" y2="35.5269" gradientUnits="userSpaceOnUse">
<stop stop-color="#FF0000"/>
<stop offset="1" stop-color="#FF985F"/>
</linearGradient>
<linearGradient id="paint1_linear_99_504" x1="100.544" y1="57.9511" x2="-32.7464" y2="35.5269" gradientUnits="userSpaceOnUse">
<stop stop-color="#FF0000"/>
<stop offset="1" stop-color="#FF985F"/>
</linearGradient>
<linearGradient id="paint2_linear_99_504" x1="100.544" y1="57.9511" x2="-32.7464" y2="35.5269" gradientUnits="userSpaceOnUse">
<stop stop-color="#FF0000"/>
<stop offset="1" stop-color="#FF985F"/>
</linearGradient>
<linearGradient id="paint3_linear_99_504" x1="100.544" y1="57.9511" x2="-32.7464" y2="35.5269" gradientUnits="userSpaceOnUse">
<stop stop-color="#FF0000"/>
<stop offset="1" stop-color="#FF985F"/>
</linearGradient>
</defs>
</svg>